<svg width="259" height="130" viewBox="0 0 259 130" fill="none" xmlns="http://www.w3.org/2000/svg">
<path d="M48.1294 73.2344C48.1294 59.2644 27.8894 64.6544 27.8894 56.0194C27.8894 52.3344 30.6944 50.5744 34.3244 50.6844C38.2844 50.7944 40.5394 53.1594 40.7594 55.7444H47.6894C47.1394 49.1994 41.9694 45.3494 34.6544 45.3494C26.8444 45.3494 21.5094 49.5294 21.5094 56.2394C21.5094 70.3194 41.8044 64.3244 41.8044 73.5644C41.8044 76.8094 39.3294 79.1744 34.9294 79.1744C30.5844 79.1744 28.3844 76.6444 28.1094 73.5094H21.3994C21.3994 80.2744 27.2844 84.4544 34.9294 84.4544C43.4544 84.4544 48.1294 78.9544 48.1294 73.2344ZM79.7828 84.0694H86.0528V45.8444H79.7828V62.2344H61.7978V45.8444H55.5278V84.0694H61.7978V67.3494H79.7828V84.0694Z" fill="white"/>
<path d="M167.037 63.4444V50.9594H173.967C178.862 50.9594 181.062 53.2694 181.062 57.2294C181.062 61.0794 178.862 63.4444 173.967 63.4444H167.037ZM187.497 57.2294C187.497 51.0144 183.042 45.8444 173.967 45.8444H160.767V84.0694H167.037V68.5594H173.967C183.922 68.5594 187.497 62.6744 187.497 57.2294ZM194.027 72.7944C194.467 78.6794 198.537 84.1244 207.062 84.1244C217.677 84.1244 220.702 76.7544 220.702 63.1144C220.702 50.4094 217.347 43.0394 206.457 43.0394C197.987 43.0394 192.927 48.3194 192.927 56.3494C192.927 64.8194 198.482 69.1644 205.412 69.1644C208.932 69.1644 212.177 67.7894 213.882 65.4244C213.882 74.4444 211.902 77.7994 207.392 77.7994C203.817 77.7994 201.782 75.9844 201.177 72.7944H194.027ZM207.007 62.8944C202.332 62.8944 200.297 59.9244 200.297 56.2944C200.297 52.2794 202.717 49.5844 206.732 49.5844C210.637 49.5844 213.167 52.0044 213.167 56.4044C213.167 60.3094 210.857 62.8944 207.007 62.8944ZM228.455 72.7944C228.895 78.6794 232.965 84.1244 241.49 84.1244C252.105 84.1244 255.13 76.7544 255.13 63.1144C255.13 50.4094 251.775 43.0394 240.885 43.0394C232.415 43.0394 227.355 48.3194 227.355 56.3494C227.355 64.8194 232.91 69.1644 239.84 69.1644C243.36 69.1644 246.605 67.7894 248.31 65.4244C248.31 74.4444 246.33 77.7994 241.82 77.7994C238.245 77.7994 236.21 75.9844 235.605 72.7944H228.455ZM241.435 62.8944C236.76 62.8944 234.725 59.9244 234.725 56.2944C234.725 52.2794 237.145 49.5844 241.16 49.5844C245.065 49.5844 247.595 52.0044 247.595 56.4044C247.595 60.3094 245.285 62.8944 241.435 62.8944Z" fill="white"/>
<path d="M128.162 95.7C131.695 95.7 135.129 95.2 138.462 94.2C141.795 93.1333 144.795 91.5 147.462 89.3C150.129 87.1 152.295 84.2333 153.962 80.7C155.362 77.5667 156.062 74.1333 156.062 70.4C156.062 66.8667 155.462 63.2667 154.262 59.6C153.062 55.8667 151.362 52.3 149.162 48.9C146.962 45.4333 144.362 42.3667 141.362 39.7C137.962 36.7 134.229 34.3 130.162 32.5C126.029 30.7 121.829 29.8 117.562 29.8C114.029 29.8 110.629 30.3 107.362 31.3C104.029 32.3 100.995 33.9 98.2622 36.1C95.5288 38.3 93.3622 41.1667 91.7622 44.7C90.3622 47.7667 89.6622 51.1667 89.6622 54.9C89.6622 58.4333 90.2622 62.0667 91.4622 65.8C92.6622 69.5333 94.3622 73.1333 96.5622 76.6C98.7622 80 101.395 83.0333 104.462 85.7C107.795 88.7 111.495 91.1333 115.562 93C119.629 94.8 123.829 95.7 128.162 95.7ZM122.162 88C119.229 88 116.429 87.5 113.762 86.5C111.095 85.5 108.729 84.1 106.662 82.3C104.195 80.1667 102.129 77.2333 100.462 73.5C98.7288 69.7667 97.8622 65.7667 97.8622 61.5C97.8622 58.3 98.4955 55.1 99.7622 51.9C100.962 48.7 102.995 45.7667 105.862 43.1C108.462 40.7 111.262 38.9667 114.262 37.9C117.195 36.7667 120.129 36.2 123.062 36.2C125.929 36.2 128.695 36.7 131.362 37.7C134.029 38.6333 136.429 40.0333 138.562 41.9C141.029 43.9667 143.129 46.9 144.862 50.7C146.529 54.4333 147.362 58.4333 147.362 62.7C147.362 65.9 146.762 69.1 145.562 72.3C144.295 75.4333 142.229 78.3333 139.362 81C136.762 83.4 133.995 85.1667 131.062 86.3C128.062 87.4333 125.095 88 122.162 88Z" fill="white"/>
<path d="M89.417 30.9438H0V36.5112H89.417L113.901 12.4882L152.381 12.2729V8.02815H112.794L89.417 30.9438Z" fill="white"/>
<path d="M116.424 15.3796H153.15L162.685 6.18259" stroke="white" stroke-width="2"/>
<path d="M119.438 19.286H150.136L161.055 30.5131H174.405" stroke="white" stroke-width="2"/>
<path d="M154.227 23.0694H168.899L177.573 13.9954H210.916L218.39 6.12106" stroke="white" stroke-width="2"/>
<circle cx="162.685" cy="5.38286" r="5.38286" fill="white"/>
<circle cx="174.374" cy="29.4981" r="4.58312" fill="white"/>
<circle cx="218.821" cy="5.75199" r="5" fill="white" stroke="#1C3481" stroke-width="0.0274992"/>
<path d="M167.361 93.3542H256.778V87.7868H167.361L142.877 111.81L104.397 112.025V116.27H143.984L167.361 93.3542Z" fill="white"/>
<path d="M140.354 108.918H103.628L94.0924 118.115" stroke="white" stroke-width="2"/>
<path d="M137.34 105.012H106.642L95.7227 93.7848H82.3732" stroke="white" stroke-width="2"/>
<path d="M102.766 101.136H88.0943L79.4203 110.21H46.0773L38.6028 118.085" stroke="white" stroke-width="2"/>
<circle cx="94.0924" cy="118.915" r="5.38286" transform="rotate(-180 94.0924 118.915)" fill="white"/>
<circle cx="82.4039" cy="94.7999" r="4.58312" transform="rotate(-180 82.4039 94.7999)" fill="white"/>
<circle cx="38.1722" cy="118.454" r="5" transform="rotate(-180 38.1722 118.454)" fill="white" stroke="#1C3481" stroke-width="0.0274992"/>
</svg>
